ISO-10303-21;
HEADER;
/* Generated by software containing ST-Developer
 * from STEP Tools, Inc. (www.steptools.com) 
 */

FILE_DESCRIPTION(
/* description */ (''),
/* implementation_level */ '2;1');

FILE_NAME(
/* name */ 'Touch_Display2_backplate.step',
/* time_stamp */ '2026-07-24T14:08:07+02:00',
/* author */ (''),
/* organization */ (''),
/* preprocessor_version */ 'ST-DEVELOPER v20.1',
/* originating_system */ 'Autodesk Translation Framework v15.8.0.0',
/* authorisation */ '');

FILE_SCHEMA (('AUTOMOTIVE_DESIGN { 1 0 10303 214 3 1 1 }'));
ENDSEC;

DATA;
#10=MECHANICAL_DESIGN_GEOMETRIC_PRESENTATION_REPRESENTATION('',(#17,#18),
#1170);
#11=SHAPE_REPRESENTATION_RELATIONSHIP('SRR','None',#1177,#12);
#12=ADVANCED_BREP_SHAPE_REPRESENTATION('',(#19,#20),#1169);
#13=ELLIPSE('',#744,22.,11.);
#14=ELLIPSE('',#745,22.,11.);
#15=ELLIPSE('',#756,28.,14.);
#16=ELLIPSE('',#757,28.,14.);
#17=STYLED_ITEM('',(#1186),#19);
#18=STYLED_ITEM('',(#1186),#20);
#19=MANIFOLD_SOLID_BREP('Fond_Amovible',#673);
#20=MANIFOLD_SOLID_BREP('Poign\X\E9e',#674);
#21=FACE_BOUND('',#136,.T.);
#22=FACE_BOUND('',#139,.T.);
#23=FACE_BOUND('',#142,.T.);
#24=FACE_BOUND('',#145,.T.);
#25=FACE_BOUND('',#151,.T.);
#26=FACE_BOUND('',#152,.T.);
#27=FACE_BOUND('',#153,.T.);
#28=FACE_BOUND('',#154,.T.);
#29=FACE_BOUND('',#155,.T.);
#30=FACE_BOUND('',#158,.T.);
#31=FACE_BOUND('',#159,.T.);
#32=FACE_BOUND('',#160,.T.);
#33=FACE_BOUND('',#161,.T.);
#34=FACE_BOUND('',#162,.T.);
#35=FACE_BOUND('',#179,.T.);
#36=CIRCLE('',#690,11.);
#37=CIRCLE('',#691,11.);
#38=CIRCLE('',#694,11.);
#39=CIRCLE('',#695,11.);
#40=CIRCLE('',#698,2.75);
#41=CIRCLE('',#699,2.75);
#42=CIRCLE('',#701,1.4);
#43=CIRCLE('',#703,2.75);
#44=CIRCLE('',#704,2.75);
#45=CIRCLE('',#706,1.4);
#46=CIRCLE('',#708,2.75);
#47=CIRCLE('',#709,2.75);
#48=CIRCLE('',#711,1.4);
#49=CIRCLE('',#713,2.75);
#50=CIRCLE('',#714,2.75);
#51=CIRCLE('',#716,1.4);
#52=CIRCLE('',#718,1.4);
#53=CIRCLE('',#720,1.4);
#54=CIRCLE('',#722,1.4);
#55=CIRCLE('',#724,1.4);
#56=CIRCLE('',#726,9.99999999999998);
#57=CIRCLE('',#727,9.99999999999998);
#58=CIRCLE('',#728,10.);
#59=CIRCLE('',#729,10.);
#60=CIRCLE('',#731,9.99999999999998);
#61=CIRCLE('',#733,10.);
#62=CIRCLE('',#734,10.);
#63=CIRCLE('',#735,9.99999999999998);
#64=CIRCLE('',#747,11.);
#65=CIRCLE('',#748,11.);
#66=CIRCLE('',#751,11.);
#67=CIRCLE('',#752,11.);
#68=CIRCLE('',#759,14.);
#69=CIRCLE('',#760,14.);
#70=CIRCLE('',#762,14.);
#71=CIRCLE('',#765,14.);
#72=CYLINDRICAL_SURFACE('',#689,11.);
#73=CYLINDRICAL_SURFACE('',#693,11.);
#74=CYLINDRICAL_SURFACE('',#697,2.75);
#75=CYLINDRICAL_SURFACE('',#702,2.75);
#76=CYLINDRICAL_SURFACE('',#707,2.75);
#77=CYLINDRICAL_SURFACE('',#712,2.75);
#78=CYLINDRICAL_SURFACE('',#717,1.4);
#79=CYLINDRICAL_SURFACE('',#719,1.4);
#80=CYLINDRICAL_SURFACE('',#721,1.4);
#81=CYLINDRICAL_SURFACE('',#723,1.4);
#82=CYLINDRICAL_SURFACE('',#730,9.99999999999998);
#83=CYLINDRICAL_SURFACE('',#737,10.);
#84=CYLINDRICAL_SURFACE('',#739,10.);
#85=CYLINDRICAL_SURFACE('',#741,9.99999999999998);
#86=CYLINDRICAL_SURFACE('',#746,11.);
#87=CYLINDRICAL_SURFACE('',#750,11.);
#88=CYLINDRICAL_SURFACE('',#758,14.);
#89=CYLINDRICAL_SURFACE('',#764,14.);
#90=FACE_OUTER_BOUND('',#129,.T.);
#91=FACE_OUTER_BOUND('',#130,.T.);
#92=FACE_OUTER_BOUND('',#131,.T.);
#93=FACE_OUTER_BOUND('',#132,.T.);
#94=FACE_OUTER_BOUND('',#133,.T.);
#95=FACE_OUTER_BOUND('',#134,.T.);
#96=FACE_OUTER_BOUND('',#135,.T.);
#97=FACE_OUTER_BOUND('',#137,.T.);
#98=FACE_OUTER_BOUND('',#138,.T.);
#99=FACE_OUTER_BOUND('',#140,.T.);
#100=FACE_OUTER_BOUND('',#141,.T.);
#101=FACE_OUTER_BOUND('',#143,.T.);
#102=FACE_OUTER_BOUND('',#144,.T.);
#103=FACE_OUTER_BOUND('',#146,.T.);
#104=FACE_OUTER_BOUND('',#147,.T.);
#105=FACE_OUTER_BOUND('',#148,.T.);
#106=FACE_OUTER_BOUND('',#149,.T.);
#107=FACE_OUTER_BOUND('',#150,.T.);
#108=FACE_OUTER_BOUND('',#156,.T.);
#109=FACE_OUTER_BOUND('',#157,.T.);
#110=FACE_OUTER_BOUND('',#163,.T.);
#111=FACE_OUTER_BOUND('',#164,.T.);
#112=FACE_OUTER_BOUND('',#165,.T.);
#113=FACE_OUTER_BOUND('',#166,.T.);
#114=FACE_OUTER_BOUND('',#167,.T.);
#115=FACE_OUTER_BOUND('',#168,.T.);
#116=FACE_OUTER_BOUND('',#169,.T.);
#117=FACE_OUTER_BOUND('',#170,.T.);
#118=FACE_OUTER_BOUND('',#171,.T.);
#119=FACE_OUTER_BOUND('',#172,.T.);
#120=FACE_OUTER_BOUND('',#173,.T.);
#121=FACE_OUTER_BOUND('',#174,.T.);
#122=FACE_OUTER_BOUND('',#175,.T.);
#123=FACE_OUTER_BOUND('',#176,.T.);
#124=FACE_OUTER_BOUND('',#177,.T.);
#125=FACE_OUTER_BOUND('',#178,.T.);
#126=FACE_OUTER_BOUND('',#180,.T.);
#127=FACE_OUTER_BOUND('',#181,.T.);
#128=FACE_OUTER_BOUND('',#182,.T.);
#129=EDGE_LOOP('',(#433,#434,#435,#436));
#130=EDGE_LOOP('',(#437,#438,#439,#440));
#131=EDGE_LOOP('',(#441,#442,#443,#444));
#132=EDGE_LOOP('',(#445,#446,#447,#448));
#133=EDGE_LOOP('',(#449,#450,#451,#452));
#134=EDGE_LOOP('',(#453,#454,#455,#456));
#135=EDGE_LOOP('',(#457));
#136=EDGE_LOOP('',(#458));
#137=EDGE_LOOP('',(#459,#460,#461,#462));
#138=EDGE_LOOP('',(#463));
#139=EDGE_LOOP('',(#464));
#140=EDGE_LOOP('',(#465,#466,#467,#468));
#141=EDGE_LOOP('',(#469));
#142=EDGE_LOOP('',(#470));
#143=EDGE_LOOP('',(#471,#472,#473,#474));
#144=EDGE_LOOP('',(#475));
#145=EDGE_LOOP('',(#476));
#146=EDGE_LOOP('',(#477,#478,#479,#480));
#147=EDGE_LOOP('',(#481,#482,#483,#484));
#148=EDGE_LOOP('',(#485,#486,#487,#488));
#149=EDGE_LOOP('',(#489,#490,#491,#492));
#150=EDGE_LOOP('',(#493,#494,#495,#496,#497,#498,#499,#500));
#151=EDGE_LOOP('',(#501,#502,#503,#504));
#152=EDGE_LOOP('',(#505));
#153=EDGE_LOOP('',(#506));
#154=EDGE_LOOP('',(#507));
#155=EDGE_LOOP('',(#508));
#156=EDGE_LOOP('',(#509,#510,#511,#512));
#157=EDGE_LOOP('',(#513,#514,#515,#516,#517,#518,#519,#520));
#158=EDGE_LOOP('',(#521,#522,#523,#524));
#159=EDGE_LOOP('',(#525));
#160=EDGE_LOOP('',(#526));
#161=EDGE_LOOP('',(#527));
#162=EDGE_LOOP('',(#528));
#163=EDGE_LOOP('',(#529,#530,#531,#532));
#164=EDGE_LOOP('',(#533,#534,#535,#536));
#165=EDGE_LOOP('',(#537,#538,#539,#540));
#166=EDGE_LOOP('',(#541,#542,#543,#544));
#167=EDGE_LOOP('',(#545,#546,#547,#548));
#168=EDGE_LOOP('',(#549,#550,#551,#552));
#169=EDGE_LOOP('',(#553,#554,#555,#556));
#170=EDGE_LOOP('',(#557,#558,#559,#560));
#171=EDGE_LOOP('',(#561,#562,#563,#564,#565));
#172=EDGE_LOOP('',(#566,#567,#568,#569));
#173=EDGE_LOOP('',(#570,#571,#572,#573,#574));
#174=EDGE_LOOP('',(#575,#576,#577,#578));
#175=EDGE_LOOP('',(#579,#580,#581,#582));
#176=EDGE_LOOP('',(#583,#584,#585,#586));
#177=EDGE_LOOP('',(#587,#588,#589,#590,#591));
#178=EDGE_LOOP('',(#592,#593,#594,#595));
#179=EDGE_LOOP('',(#596,#597,#598,#599));
#180=EDGE_LOOP('',(#600,#601,#602,#603));
#181=EDGE_LOOP('',(#604,#605,#606,#607,#608));
#182=EDGE_LOOP('',(#609,#610,#611,#612));
#183=LINE('',#981,#233);
#184=LINE('',#983,#234);
#185=LINE('',#985,#235);
#186=LINE('',#986,#236);
#187=LINE('',#992,#237);
#188=LINE('',#995,#238);
#189=LINE('',#997,#239);
#190=LINE('',#998,#240);
#191=LINE('',#1005,#241);
#192=LINE('',#1007,#242);
#193=LINE('',#1009,#243);
#194=LINE('',#1010,#244);
#195=LINE('',#1015,#245);
#196=LINE('',#1024,#246);
#197=LINE('',#1033,#247);
#198=LINE('',#1042,#248);
#199=LINE('',#1049,#249);
#200=LINE('',#1053,#250);
#201=LINE('',#1057,#251);
#202=LINE('',#1061,#252);
#203=LINE('',#1069,#253);
#204=LINE('',#1073,#254);
#205=LINE('',#1076,#255);
#206=LINE('',#1080,#256);
#207=LINE('',#1083,#257);
#208=LINE('',#1087,#258);
#209=LINE('',#1091,#259);
#210=LINE('',#1094,#260);
#211=LINE('',#1096,#261);
#212=LINE('',#1098,#262);
#213=LINE('',#1100,#263);
#214=LINE('',#1102,#264);
#215=LINE('',#1107,#265);
#216=LINE('',#1109,#266);
#217=LINE('',#1111,#267);
#218=LINE('',#1112,#268);
#219=LINE('',#1116,#269);
#220=LINE('',#1124,#270);
#221=LINE('',#1127,#271);
#222=LINE('',#1129,#272);
#223=LINE('',#1130,#273);
#224=LINE('',#1138,#274);
#225=LINE('',#1140,#275);
#226=LINE('',#1142,#276);
#227=LINE('',#1143,#277);
#228=LINE('',#1147,#278);
#229=LINE('',#1154,#279);
#230=LINE('',#1159,#280);
#231=LINE('',#1162,#281);
#232=LINE('',#1163,#282);
#233=VECTOR('',#771,10.);
#234=VECTOR('',#772,10.);
#235=VECTOR('',#773,10.);
#236=VECTOR('',#774,10.);
#237=VECTOR('',#781,10.);
#238=VECTOR('',#784,10.);
#239=VECTOR('',#785,10.);
#240=VECTOR('',#786,10.);
#241=VECTOR('',#795,10.);
#242=VECTOR('',#796,10.);
#243=VECTOR('',#797,10.);
#244=VECTOR('',#798,10.);
#245=VECTOR('',#803,2.75);
#246=VECTOR('',#814,2.75);
#247=VECTOR('',#825,2.75);
#248=VECTOR('',#836,2.75);
#249=VECTOR('',#845,1.4);
#250=VECTOR('',#850,1.4);
#251=VECTOR('',#855,1.4);
#252=VECTOR('',#860,1.4);
#253=VECTOR('',#869,10.);
#254=VECTOR('',#872,10.);
#255=VECTOR('',#875,10.);
#256=VECTOR('',#880,10.);
#257=VECTOR('',#883,10.);
#258=VECTOR('',#886,10.);
#259=VECTOR('',#889,10.);
#260=VECTOR('',#894,10.);
#261=VECTOR('',#897,10.);
#262=VECTOR('',#900,10.);
#263=VECTOR('',#903,10.);
#264=VECTOR('',#906,10.);
#265=VECTOR('',#911,10.);
#266=VECTOR('',#912,10.);
#267=VECTOR('',#913,10.);
#268=VECTOR('',#914,10.);
#269=VECTOR('',#917,10.);
#270=VECTOR('',#928,10.);
#271=VECTOR('',#931,10.);
#272=VECTOR('',#932,10.);
#273=VECTOR('',#933,10.);
#274=VECTOR('',#944,10.);
#275=VECTOR('',#945,10.);
#276=VECTOR('',#946,10.);
#277=VECTOR('',#947,10.);
#278=VECTOR('',#950,10.);
#279=VECTOR('',#959,10.);
#280=VECTOR('',#966,10.);
#281=VECTOR('',#969,10.);
#282=VECTOR('',#970,10.);
#283=VERTEX_POINT('',#979);
#284=VERTEX_POINT('',#980);
#285=VERTEX_POINT('',#982);
#286=VERTEX_POINT('',#984);
#287=VERTEX_POINT('',#988);
#288=VERTEX_POINT('',#990);
#289=VERTEX_POINT('',#994);
#290=VERTEX_POINT('',#996);
#291=VERTEX_POINT('',#1003);
#292=VERTEX_POINT('',#1004);
#293=VERTEX_POINT('',#1006);
#294=VERTEX_POINT('',#1008);
#295=VERTEX_POINT('',#1012);
#296=VERTEX_POINT('',#1014);
#297=VERTEX_POINT('',#1018);
#298=VERTEX_POINT('',#1021);
#299=VERTEX_POINT('',#1023);
#300=VERTEX_POINT('',#1027);
#301=VERTEX_POINT('',#1030);
#302=VERTEX_POINT('',#1032);
#303=VERTEX_POINT('',#1036);
#304=VERTEX_POINT('',#1039);
#305=VERTEX_POINT('',#1041);
#306=VERTEX_POINT('',#1045);
#307=VERTEX_POINT('',#1048);
#308=VERTEX_POINT('',#1052);
#309=VERTEX_POINT('',#1056);
#310=VERTEX_POINT('',#1060);
#311=VERTEX_POINT('',#1064);
#312=VERTEX_POINT('',#1066);
#313=VERTEX_POINT('',#1068);
#314=VERTEX_POINT('',#1070);
#315=VERTEX_POINT('',#1072);
#316=VERTEX_POINT('',#1074);
#317=VERTEX_POINT('',#1078);
#318=VERTEX_POINT('',#1082);
#319=VERTEX_POINT('',#1084);
#320=VERTEX_POINT('',#1086);
#321=VERTEX_POINT('',#1088);
#322=VERTEX_POINT('',#1090);
#323=VERTEX_POINT('',#1105);
#324=VERTEX_POINT('',#1106);
#325=VERTEX_POINT('',#1108);
#326=VERTEX_POINT('',#1110);
#327=VERTEX_POINT('',#1114);
#328=VERTEX_POINT('',#1115);
#329=VERTEX_POINT('',#1120);
#330=VERTEX_POINT('',#1122);
#331=VERTEX_POINT('',#1126);
#332=VERTEX_POINT('',#1128);
#333=VERTEX_POINT('',#1136);
#334=VERTEX_POINT('',#1137);
#335=VERTEX_POINT('',#1139);
#336=VERTEX_POINT('',#1141);
#337=VERTEX_POINT('',#1145);
#338=VERTEX_POINT('',#1146);
#339=VERTEX_POINT('',#1151);
#340=VERTEX_POINT('',#1153);
#341=VERTEX_POINT('',#1157);
#342=VERTEX_POINT('',#1161);
#343=EDGE_CURVE('',#283,#284,#183,.T.);
#344=EDGE_CURVE('',#285,#283,#184,.T.);
#345=EDGE_CURVE('',#286,#285,#185,.T.);
#346=EDGE_CURVE('',#286,#284,#186,.T.);
#347=EDGE_CURVE('',#284,#287,#36,.T.);
#348=EDGE_CURVE('',#288,#286,#37,.T.);
#349=EDGE_CURVE('',#288,#287,#187,.T.);
#350=EDGE_CURVE('',#287,#289,#188,.T.);
#351=EDGE_CURVE('',#290,#288,#189,.T.);
#352=EDGE_CURVE('',#290,#289,#190,.T.);
#353=EDGE_CURVE('',#289,#283,#38,.T.);
#354=EDGE_CURVE('',#285,#290,#39,.T.);
#355=EDGE_CURVE('',#291,#292,#191,.T.);
#356=EDGE_CURVE('',#291,#293,#192,.T.);
#357=EDGE_CURVE('',#294,#293,#193,.F.);
#358=EDGE_CURVE('',#292,#294,#194,.T.);
#359=EDGE_CURVE('',#295,#295,#40,.T.);
#360=EDGE_CURVE('',#295,#296,#195,.T.);
#361=EDGE_CURVE('',#296,#296,#41,.T.);
#362=EDGE_CURVE('',#297,#297,#42,.T.);
#363=EDGE_CURVE('',#298,#298,#43,.T.);
#364=EDGE_CURVE('',#298,#299,#196,.T.);
#365=EDGE_CURVE('',#299,#299,#44,.T.);
#366=EDGE_CURVE('',#300,#300,#45,.T.);
#367=EDGE_CURVE('',#301,#301,#46,.T.);
#368=EDGE_CURVE('',#301,#302,#197,.T.);
#369=EDGE_CURVE('',#302,#302,#47,.T.);
#370=EDGE_CURVE('',#303,#303,#48,.T.);
#371=EDGE_CURVE('',#304,#304,#49,.T.);
#372=EDGE_CURVE('',#304,#305,#198,.T.);
#373=EDGE_CURVE('',#305,#305,#50,.T.);
#374=EDGE_CURVE('',#306,#306,#51,.T.);
#375=EDGE_CURVE('',#297,#307,#199,.T.);
#376=EDGE_CURVE('',#307,#307,#52,.F.);
#377=EDGE_CURVE('',#300,#308,#200,.T.);
#378=EDGE_CURVE('',#308,#308,#53,.F.);
#379=EDGE_CURVE('',#303,#309,#201,.T.);
#380=EDGE_CURVE('',#309,#309,#54,.F.);
#381=EDGE_CURVE('',#306,#310,#202,.T.);
#382=EDGE_CURVE('',#310,#310,#55,.F.);
#383=EDGE_CURVE('',#311,#294,#56,.F.);
#384=EDGE_CURVE('',#293,#312,#57,.F.);
#385=EDGE_CURVE('',#312,#313,#203,.F.);
#386=EDGE_CURVE('',#313,#314,#58,.F.);
#387=EDGE_CURVE('',#314,#315,#204,.F.);
#388=EDGE_CURVE('',#315,#316,#59,.F.);
#389=EDGE_CURVE('',#316,#311,#205,.F.);
#390=EDGE_CURVE('',#292,#317,#60,.T.);
#391=EDGE_CURVE('',#317,#311,#206,.T.);
#392=EDGE_CURVE('',#317,#318,#207,.T.);
#393=EDGE_CURVE('',#318,#319,#61,.T.);
#394=EDGE_CURVE('',#319,#320,#208,.T.);
#395=EDGE_CURVE('',#320,#321,#62,.T.);
#396=EDGE_CURVE('',#321,#322,#209,.T.);
#397=EDGE_CURVE('',#322,#291,#63,.T.);
#398=EDGE_CURVE('',#318,#316,#210,.T.);
#399=EDGE_CURVE('',#319,#315,#211,.T.);
#400=EDGE_CURVE('',#320,#314,#212,.T.);
#401=EDGE_CURVE('',#321,#313,#213,.T.);
#402=EDGE_CURVE('',#322,#312,#214,.T.);
#403=EDGE_CURVE('',#323,#324,#215,.T.);
#404=EDGE_CURVE('',#323,#325,#216,.T.);
#405=EDGE_CURVE('',#325,#326,#217,.T.);
#406=EDGE_CURVE('',#324,#326,#218,.T.);
#407=EDGE_CURVE('',#327,#328,#219,.T.);
#408=EDGE_CURVE('',#326,#328,#13,.T.);
#409=EDGE_CURVE('',#327,#325,#14,.T.);
#410=EDGE_CURVE('',#324,#329,#64,.T.);
#411=EDGE_CURVE('',#328,#330,#65,.T.);
#412=EDGE_CURVE('',#329,#330,#220,.T.);
#413=EDGE_CURVE('',#329,#331,#221,.T.);
#414=EDGE_CURVE('',#330,#332,#222,.T.);
#415=EDGE_CURVE('',#331,#332,#223,.T.);
#416=EDGE_CURVE('',#332,#327,#66,.T.);
#417=EDGE_CURVE('',#331,#323,#67,.T.);
#418=EDGE_CURVE('',#333,#334,#224,.F.);
#419=EDGE_CURVE('',#334,#335,#225,.T.);
#420=EDGE_CURVE('',#336,#335,#226,.F.);
#421=EDGE_CURVE('',#333,#336,#227,.T.);
#422=EDGE_CURVE('',#337,#338,#228,.F.);
#423=EDGE_CURVE('',#337,#336,#15,.T.);
#424=EDGE_CURVE('',#335,#338,#16,.T.);
#425=EDGE_CURVE('',#334,#339,#68,.F.);
#426=EDGE_CURVE('',#339,#340,#229,.T.);
#427=EDGE_CURVE('',#338,#340,#69,.F.);
#428=EDGE_CURVE('',#341,#333,#70,.F.);
#429=EDGE_CURVE('',#339,#341,#230,.F.);
#430=EDGE_CURVE('',#341,#342,#231,.T.);
#431=EDGE_CURVE('',#340,#342,#232,.F.);
#432=EDGE_CURVE('',#342,#337,#71,.F.);
#433=ORIENTED_EDGE('',*,*,#343,.F.);
#434=ORIENTED_EDGE('',*,*,#344,.F.);
#435=ORIENTED_EDGE('',*,*,#345,.F.);
#436=ORIENTED_EDGE('',*,*,#346,.T.);
#437=ORIENTED_EDGE('',*,*,#347,.F.);
#438=ORIENTED_EDGE('',*,*,#346,.F.);
#439=ORIENTED_EDGE('',*,*,#348,.F.);
#440=ORIENTED_EDGE('',*,*,#349,.T.);
#441=ORIENTED_EDGE('',*,*,#350,.F.);
#442=ORIENTED_EDGE('',*,*,#349,.F.);
#443=ORIENTED_EDGE('',*,*,#351,.F.);
#444=ORIENTED_EDGE('',*,*,#352,.T.);
#445=ORIENTED_EDGE('',*,*,#353,.F.);
#446=ORIENTED_EDGE('',*,*,#352,.F.);
#447=ORIENTED_EDGE('',*,*,#354,.F.);
#448=ORIENTED_EDGE('',*,*,#344,.T.);
#449=ORIENTED_EDGE('',*,*,#355,.F.);
#450=ORIENTED_EDGE('',*,*,#356,.T.);
#451=ORIENTED_EDGE('',*,*,#357,.F.);
#452=ORIENTED_EDGE('',*,*,#358,.F.);
#453=ORIENTED_EDGE('',*,*,#359,.F.);
#454=ORIENTED_EDGE('',*,*,#360,.T.);
#455=ORIENTED_EDGE('',*,*,#361,.T.);
#456=ORIENTED_EDGE('',*,*,#360,.F.);
#457=ORIENTED_EDGE('',*,*,#361,.F.);
#458=ORIENTED_EDGE('',*,*,#362,.F.);
#459=ORIENTED_EDGE('',*,*,#363,.F.);
#460=ORIENTED_EDGE('',*,*,#364,.T.);
#461=ORIENTED_EDGE('',*,*,#365,.T.);
#462=ORIENTED_EDGE('',*,*,#364,.F.);
#463=ORIENTED_EDGE('',*,*,#365,.F.);
#464=ORIENTED_EDGE('',*,*,#366,.F.);
#465=ORIENTED_EDGE('',*,*,#367,.F.);
#466=ORIENTED_EDGE('',*,*,#368,.T.);
#467=ORIENTED_EDGE('',*,*,#369,.T.);
#468=ORIENTED_EDGE('',*,*,#368,.F.);
#469=ORIENTED_EDGE('',*,*,#369,.F.);
#470=ORIENTED_EDGE('',*,*,#370,.F.);
#471=ORIENTED_EDGE('',*,*,#371,.F.);
#472=ORIENTED_EDGE('',*,*,#372,.T.);
#473=ORIENTED_EDGE('',*,*,#373,.T.);
#474=ORIENTED_EDGE('',*,*,#372,.F.);
#475=ORIENTED_EDGE('',*,*,#373,.F.);
#476=ORIENTED_EDGE('',*,*,#374,.F.);
#477=ORIENTED_EDGE('',*,*,#362,.T.);
#478=ORIENTED_EDGE('',*,*,#375,.T.);
#479=ORIENTED_EDGE('',*,*,#376,.F.);
#480=ORIENTED_EDGE('',*,*,#375,.F.);
#481=ORIENTED_EDGE('',*,*,#366,.T.);
#482=ORIENTED_EDGE('',*,*,#377,.T.);
#483=ORIENTED_EDGE('',*,*,#378,.F.);
#484=ORIENTED_EDGE('',*,*,#377,.F.);
#485=ORIENTED_EDGE('',*,*,#370,.T.);
#486=ORIENTED_EDGE('',*,*,#379,.T.);
#487=ORIENTED_EDGE('',*,*,#380,.F.);
#488=ORIENTED_EDGE('',*,*,#379,.F.);
#489=ORIENTED_EDGE('',*,*,#374,.T.);
#490=ORIENTED_EDGE('',*,*,#381,.T.);
#491=ORIENTED_EDGE('',*,*,#382,.F.);
#492=ORIENTED_EDGE('',*,*,#381,.F.);
#493=ORIENTED_EDGE('',*,*,#383,.T.);
#494=ORIENTED_EDGE('',*,*,#357,.T.);
#495=ORIENTED_EDGE('',*,*,#384,.T.);
#496=ORIENTED_EDGE('',*,*,#385,.T.);
#497=ORIENTED_EDGE('',*,*,#386,.T.);
#498=ORIENTED_EDGE('',*,*,#387,.T.);
#499=ORIENTED_EDGE('',*,*,#388,.T.);
#500=ORIENTED_EDGE('',*,*,#389,.T.);
#501=ORIENTED_EDGE('',*,*,#351,.T.);
#502=ORIENTED_EDGE('',*,*,#348,.T.);
#503=ORIENTED_EDGE('',*,*,#345,.T.);
#504=ORIENTED_EDGE('',*,*,#354,.T.);
#505=ORIENTED_EDGE('',*,*,#371,.T.);
#506=ORIENTED_EDGE('',*,*,#367,.T.);
#507=ORIENTED_EDGE('',*,*,#363,.T.);
#508=ORIENTED_EDGE('',*,*,#359,.T.);
#509=ORIENTED_EDGE('',*,*,#390,.F.);
#510=ORIENTED_EDGE('',*,*,#358,.T.);
#511=ORIENTED_EDGE('',*,*,#383,.F.);
#512=ORIENTED_EDGE('',*,*,#391,.F.);
#513=ORIENTED_EDGE('',*,*,#355,.T.);
#514=ORIENTED_EDGE('',*,*,#390,.T.);
#515=ORIENTED_EDGE('',*,*,#392,.T.);
#516=ORIENTED_EDGE('',*,*,#393,.T.);
#517=ORIENTED_EDGE('',*,*,#394,.T.);
#518=ORIENTED_EDGE('',*,*,#395,.T.);
#519=ORIENTED_EDGE('',*,*,#396,.T.);
#520=ORIENTED_EDGE('',*,*,#397,.T.);
#521=ORIENTED_EDGE('',*,*,#350,.T.);
#522=ORIENTED_EDGE('',*,*,#353,.T.);
#523=ORIENTED_EDGE('',*,*,#343,.T.);
#524=ORIENTED_EDGE('',*,*,#347,.T.);
#525=ORIENTED_EDGE('',*,*,#376,.T.);
#526=ORIENTED_EDGE('',*,*,#378,.T.);
#527=ORIENTED_EDGE('',*,*,#380,.T.);
#528=ORIENTED_EDGE('',*,*,#382,.T.);
#529=ORIENTED_EDGE('',*,*,#392,.F.);
#530=ORIENTED_EDGE('',*,*,#391,.T.);
#531=ORIENTED_EDGE('',*,*,#389,.F.);
#532=ORIENTED_EDGE('',*,*,#398,.F.);
#533=ORIENTED_EDGE('',*,*,#393,.F.);
#534=ORIENTED_EDGE('',*,*,#398,.T.);
#535=ORIENTED_EDGE('',*,*,#388,.F.);
#536=ORIENTED_EDGE('',*,*,#399,.F.);
#537=ORIENTED_EDGE('',*,*,#394,.F.);
#538=ORIENTED_EDGE('',*,*,#399,.T.);
#539=ORIENTED_EDGE('',*,*,#387,.F.);
#540=ORIENTED_EDGE('',*,*,#400,.F.);
#541=ORIENTED_EDGE('',*,*,#395,.F.);
#542=ORIENTED_EDGE('',*,*,#400,.T.);
#543=ORIENTED_EDGE('',*,*,#386,.F.);
#544=ORIENTED_EDGE('',*,*,#401,.F.);
#545=ORIENTED_EDGE('',*,*,#396,.F.);
#546=ORIENTED_EDGE('',*,*,#401,.T.);
#547=ORIENTED_EDGE('',*,*,#385,.F.);
#548=ORIENTED_EDGE('',*,*,#402,.F.);
#549=ORIENTED_EDGE('',*,*,#397,.F.);
#550=ORIENTED_EDGE('',*,*,#402,.T.);
#551=ORIENTED_EDGE('',*,*,#384,.F.);
#552=ORIENTED_EDGE('',*,*,#356,.F.);
#553=ORIENTED_EDGE('',*,*,#403,.F.);
#554=ORIENTED_EDGE('',*,*,#404,.T.);
#555=ORIENTED_EDGE('',*,*,#405,.T.);
#556=ORIENTED_EDGE('',*,*,#406,.F.);
#557=ORIENTED_EDGE('',*,*,#407,.T.);
#558=ORIENTED_EDGE('',*,*,#408,.F.);
#559=ORIENTED_EDGE('',*,*,#405,.F.);
#560=ORIENTED_EDGE('',*,*,#409,.F.);
#561=ORIENTED_EDGE('',*,*,#410,.F.);
#562=ORIENTED_EDGE('',*,*,#406,.T.);
#563=ORIENTED_EDGE('',*,*,#408,.T.);
#564=ORIENTED_EDGE('',*,*,#411,.T.);
#565=ORIENTED_EDGE('',*,*,#412,.F.);
#566=ORIENTED_EDGE('',*,*,#413,.F.);
#567=ORIENTED_EDGE('',*,*,#412,.T.);
#568=ORIENTED_EDGE('',*,*,#414,.T.);
#569=ORIENTED_EDGE('',*,*,#415,.F.);
#570=ORIENTED_EDGE('',*,*,#416,.T.);
#571=ORIENTED_EDGE('',*,*,#409,.T.);
#572=ORIENTED_EDGE('',*,*,#404,.F.);
#573=ORIENTED_EDGE('',*,*,#417,.F.);
#574=ORIENTED_EDGE('',*,*,#415,.T.);
#575=ORIENTED_EDGE('',*,*,#407,.F.);
#576=ORIENTED_EDGE('',*,*,#416,.F.);
#577=ORIENTED_EDGE('',*,*,#414,.F.);
#578=ORIENTED_EDGE('',*,*,#411,.F.);
#579=ORIENTED_EDGE('',*,*,#418,.T.);
#580=ORIENTED_EDGE('',*,*,#419,.T.);
#581=ORIENTED_EDGE('',*,*,#420,.F.);
#582=ORIENTED_EDGE('',*,*,#421,.F.);
#583=ORIENTED_EDGE('',*,*,#422,.F.);
#584=ORIENTED_EDGE('',*,*,#423,.T.);
#585=ORIENTED_EDGE('',*,*,#420,.T.);
#586=ORIENTED_EDGE('',*,*,#424,.T.);
#587=ORIENTED_EDGE('',*,*,#425,.T.);
#588=ORIENTED_EDGE('',*,*,#426,.T.);
#589=ORIENTED_EDGE('',*,*,#427,.F.);
#590=ORIENTED_EDGE('',*,*,#424,.F.);
#591=ORIENTED_EDGE('',*,*,#419,.F.);
#592=ORIENTED_EDGE('',*,*,#428,.F.);
#593=ORIENTED_EDGE('',*,*,#429,.F.);
#594=ORIENTED_EDGE('',*,*,#425,.F.);
#595=ORIENTED_EDGE('',*,*,#418,.F.);
#596=ORIENTED_EDGE('',*,*,#403,.T.);
#597=ORIENTED_EDGE('',*,*,#410,.T.);
#598=ORIENTED_EDGE('',*,*,#413,.T.);
#599=ORIENTED_EDGE('',*,*,#417,.T.);
#600=ORIENTED_EDGE('',*,*,#429,.T.);
#601=ORIENTED_EDGE('',*,*,#430,.T.);
#602=ORIENTED_EDGE('',*,*,#431,.F.);
#603=ORIENTED_EDGE('',*,*,#426,.F.);
#604=ORIENTED_EDGE('',*,*,#432,.F.);
#605=ORIENTED_EDGE('',*,*,#430,.F.);
#606=ORIENTED_EDGE('',*,*,#428,.T.);
#607=ORIENTED_EDGE('',*,*,#421,.T.);
#608=ORIENTED_EDGE('',*,*,#423,.F.);
#609=ORIENTED_EDGE('',*,*,#422,.T.);
#610=ORIENTED_EDGE('',*,*,#427,.T.);
#611=ORIENTED_EDGE('',*,*,#431,.T.);
#612=ORIENTED_EDGE('',*,*,#432,.T.);
#613=PLANE('',#688);
#614=PLANE('',#692);
#615=PLANE('',#696);
#616=PLANE('',#700);
#617=PLANE('',#705);
#618=PLANE('',#710);
#619=PLANE('',#715);
#620=PLANE('',#725);
#621=PLANE('',#732);
#622=PLANE('',#736);
#623=PLANE('',#738);
#624=PLANE('',#740);
#625=PLANE('',#742);
#626=PLANE('',#743);
#627=PLANE('',#749);
#628=PLANE('',#753);
#629=PLANE('',#754);
#630=PLANE('',#755);
#631=PLANE('',#761);
#632=PLANE('',#763);
#633=PLANE('',#766);
#634=ADVANCED_FACE('',(#90),#613,.F.);
#635=ADVANCED_FACE('',(#91),#72,.F.);
#636=ADVANCED_FACE('',(#92),#614,.F.);
#637=ADVANCED_FACE('',(#93),#73,.F.);
#638=ADVANCED_FACE('',(#94),#615,.T.);
#639=ADVANCED_FACE('',(#95),#74,.F.);
#640=ADVANCED_FACE('',(#96,#21),#616,.T.);
#641=ADVANCED_FACE('',(#97),#75,.F.);
#642=ADVANCED_FACE('',(#98,#22),#617,.T.);
#643=ADVANCED_FACE('',(#99),#76,.F.);
#644=ADVANCED_FACE('',(#100,#23),#618,.T.);
#645=ADVANCED_FACE('',(#101),#77,.F.);
#646=ADVANCED_FACE('',(#102,#24),#619,.T.);
#647=ADVANCED_FACE('',(#103),#78,.F.);
#648=ADVANCED_FACE('',(#104),#79,.F.);
#649=ADVANCED_FACE('',(#105),#80,.F.);
#650=ADVANCED_FACE('',(#106),#81,.F.);
#651=ADVANCED_FACE('',(#107,#25,#26,#27,#28,#29),#620,.F.);
#652=ADVANCED_FACE('',(#108),#82,.T.);
#653=ADVANCED_FACE('',(#109,#30,#31,#32,#33,#34),#621,.T.);
#654=ADVANCED_FACE('',(#110),#622,.T.);
#655=ADVANCED_FACE('',(#111),#83,.T.);
#656=ADVANCED_FACE('',(#112),#623,.T.);
#657=ADVANCED_FACE('',(#113),#84,.T.);
#658=ADVANCED_FACE('',(#114),#624,.T.);
#659=ADVANCED_FACE('',(#115),#85,.T.);
#660=ADVANCED_FACE('',(#116),#625,.F.);
#661=ADVANCED_FACE('',(#117),#626,.F.);
#662=ADVANCED_FACE('',(#118),#86,.F.);
#663=ADVANCED_FACE('',(#119),#627,.F.);
#664=ADVANCED_FACE('',(#120),#87,.F.);
#665=ADVANCED_FACE('',(#121),#628,.F.);
#666=ADVANCED_FACE('',(#122),#629,.T.);
#667=ADVANCED_FACE('',(#123),#630,.T.);
#668=ADVANCED_FACE('',(#124),#88,.T.);
#669=ADVANCED_FACE('',(#125,#35),#631,.F.);
#670=ADVANCED_FACE('',(#126),#632,.T.);
#671=ADVANCED_FACE('',(#127),#89,.T.);
#672=ADVANCED_FACE('',(#128),#633,.T.);
#673=CLOSED_SHELL('',(#634,#635,#636,#637,#638,#639,#640,#641,#642,#643,
#644,#645,#646,#647,#648,#649,#650,#651,#652,#653,#654,#655,#656,#657,#658,
#659));
#674=CLOSED_SHELL('',(#660,#661,#662,#663,#664,#665,#666,#667,#668,#669,
#670,#671,#672));
#675=DERIVED_UNIT_ELEMENT(#677,1.);
#676=DERIVED_UNIT_ELEMENT(#1172,-3.);
#677=(
MASS_UNIT()
NAMED_UNIT(*)
SI_UNIT(.KILO.,.GRAM.)
);
#678=DERIVED_UNIT((#675,#676));
#679=MEASURE_REPRESENTATION_ITEM('density measure',
POSITIVE_RATIO_MEASURE(7850.),#678);
#680=PROPERTY_DEFINITION_REPRESENTATION(#685,#682);
#681=PROPERTY_DEFINITION_REPRESENTATION(#686,#683);
#682=REPRESENTATION('material name',(#684),#1169);
#683=REPRESENTATION('density',(#679),#1169);
#684=DESCRIPTIVE_REPRESENTATION_ITEM('Acier','Acier');
#685=PROPERTY_DEFINITION('material property','material name',#1179);
#686=PROPERTY_DEFINITION('material property','density of part',#1179);
#687=AXIS2_PLACEMENT_3D('',#977,#767,#768);
#688=AXIS2_PLACEMENT_3D('',#978,#769,#770);
#689=AXIS2_PLACEMENT_3D('',#987,#775,#776);
#690=AXIS2_PLACEMENT_3D('',#989,#777,#778);
#691=AXIS2_PLACEMENT_3D('',#991,#779,#780);
#692=AXIS2_PLACEMENT_3D('',#993,#782,#783);
#693=AXIS2_PLACEMENT_3D('',#999,#787,#788);
#694=AXIS2_PLACEMENT_3D('',#1000,#789,#790);
#695=AXIS2_PLACEMENT_3D('',#1001,#791,#792);
#696=AXIS2_PLACEMENT_3D('',#1002,#793,#794);
#697=AXIS2_PLACEMENT_3D('',#1011,#799,#800);
#698=AXIS2_PLACEMENT_3D('',#1013,#801,#802);
#699=AXIS2_PLACEMENT_3D('',#1016,#804,#805);
#700=AXIS2_PLACEMENT_3D('',#1017,#806,#807);
#701=AXIS2_PLACEMENT_3D('',#1019,#808,#809);
#702=AXIS2_PLACEMENT_3D('',#1020,#810,#811);
#703=AXIS2_PLACEMENT_3D('',#1022,#812,#813);
#704=AXIS2_PLACEMENT_3D('',#1025,#815,#816);
#705=AXIS2_PLACEMENT_3D('',#1026,#817,#818);
#706=AXIS2_PLACEMENT_3D('',#1028,#819,#820);
#707=AXIS2_PLACEMENT_3D('',#1029,#821,#822);
#708=AXIS2_PLACEMENT_3D('',#1031,#823,#824);
#709=AXIS2_PLACEMENT_3D('',#1034,#826,#827);
#710=AXIS2_PLACEMENT_3D('',#1035,#828,#829);
#711=AXIS2_PLACEMENT_3D('',#1037,#830,#831);
#712=AXIS2_PLACEMENT_3D('',#1038,#832,#833);
#713=AXIS2_PLACEMENT_3D('',#1040,#834,#835);
#714=AXIS2_PLACEMENT_3D('',#1043,#837,#838);
#715=AXIS2_PLACEMENT_3D('',#1044,#839,#840);
#716=AXIS2_PLACEMENT_3D('',#1046,#841,#842);
#717=AXIS2_PLACEMENT_3D('',#1047,#843,#844);
#718=AXIS2_PLACEMENT_3D('',#1050,#846,#847);
#719=AXIS2_PLACEMENT_3D('',#1051,#848,#849);
#720=AXIS2_PLACEMENT_3D('',#1054,#851,#852);
#721=AXIS2_PLACEMENT_3D('',#1055,#853,#854);
#722=AXIS2_PLACEMENT_3D('',#1058,#856,#857);
#723=AXIS2_PLACEMENT_3D('',#1059,#858,#859);
#724=AXIS2_PLACEMENT_3D('',#1062,#861,#862);
#725=AXIS2_PLACEMENT_3D('',#1063,#863,#864);
#726=AXIS2_PLACEMENT_3D('',#1065,#865,#866);
#727=AXIS2_PLACEMENT_3D('',#1067,#867,#868);
#728=AXIS2_PLACEMENT_3D('',#1071,#870,#871);
#729=AXIS2_PLACEMENT_3D('',#1075,#873,#874);
#730=AXIS2_PLACEMENT_3D('',#1077,#876,#877);
#731=AXIS2_PLACEMENT_3D('',#1079,#878,#879);
#732=AXIS2_PLACEMENT_3D('',#1081,#881,#882);
#733=AXIS2_PLACEMENT_3D('',#1085,#884,#885);
#734=AXIS2_PLACEMENT_3D('',#1089,#887,#888);
#735=AXIS2_PLACEMENT_3D('',#1092,#890,#891);
#736=AXIS2_PLACEMENT_3D('',#1093,#892,#893);
#737=AXIS2_PLACEMENT_3D('',#1095,#895,#896);
#738=AXIS2_PLACEMENT_3D('',#1097,#898,#899);
#739=AXIS2_PLACEMENT_3D('',#1099,#901,#902);
#740=AXIS2_PLACEMENT_3D('',#1101,#904,#905);
#741=AXIS2_PLACEMENT_3D('',#1103,#907,#908);
#742=AXIS2_PLACEMENT_3D('',#1104,#909,#910);
#743=AXIS2_PLACEMENT_3D('',#1113,#915,#916);
#744=AXIS2_PLACEMENT_3D('',#1117,#918,#919);
#745=AXIS2_PLACEMENT_3D('',#1118,#920,#921);
#746=AXIS2_PLACEMENT_3D('',#1119,#922,#923);
#747=AXIS2_PLACEMENT_3D('',#1121,#924,#925);
#748=AXIS2_PLACEMENT_3D('',#1123,#926,#927);
#749=AXIS2_PLACEMENT_3D('',#1125,#929,#930);
#750=AXIS2_PLACEMENT_3D('',#1131,#934,#935);
#751=AXIS2_PLACEMENT_3D('',#1132,#936,#937);
#752=AXIS2_PLACEMENT_3D('',#1133,#938,#939);
#753=AXIS2_PLACEMENT_3D('',#1134,#940,#941);
#754=AXIS2_PLACEMENT_3D('',#1135,#942,#943);
#755=AXIS2_PLACEMENT_3D('',#1144,#948,#949);
#756=AXIS2_PLACEMENT_3D('',#1148,#951,#952);
#757=AXIS2_PLACEMENT_3D('',#1149,#953,#954);
#758=AXIS2_PLACEMENT_3D('',#1150,#955,#956);
#759=AXIS2_PLACEMENT_3D('',#1152,#957,#958);
#760=AXIS2_PLACEMENT_3D('',#1155,#960,#961);
#761=AXIS2_PLACEMENT_3D('',#1156,#962,#963);
#762=AXIS2_PLACEMENT_3D('',#1158,#964,#965);
#763=AXIS2_PLACEMENT_3D('',#1160,#967,#968);
#764=AXIS2_PLACEMENT_3D('',#1164,#971,#972);
#765=AXIS2_PLACEMENT_3D('',#1165,#973,#974);
#766=AXIS2_PLACEMENT_3D('',#1166,#975,#976);
#767=DIRECTION('axis',(0.,0.,1.));
#768=DIRECTION('refdir',(1.,0.,0.));
#769=DIRECTION('center_axis',(-1.,0.,0.));
#770=DIRECTION('ref_axis',(0.,-1.,0.));
#771=DIRECTION('',(0.,1.,0.));
#772=DIRECTION('',(0.,0.,1.));
#773=DIRECTION('',(0.,-1.,0.));
#774=DIRECTION('',(0.,0.,1.));
#775=DIRECTION('center_axis',(0.,0.,1.));
#776=DIRECTION('ref_axis',(-1.,-1.61486985400023E-15,0.));
#777=DIRECTION('center_axis',(0.,0.,-1.));
#778=DIRECTION('ref_axis',(-1.,-1.61486985400023E-15,0.));
#779=DIRECTION('center_axis',(0.,0.,1.));
#780=DIRECTION('ref_axis',(-1.,-1.61486985400023E-15,0.));
#781=DIRECTION('',(0.,0.,1.));
#782=DIRECTION('center_axis',(1.,6.16790569236198E-17,0.));
#783=DIRECTION('ref_axis',(-6.16790569236198E-17,1.,0.));
#784=DIRECTION('',(6.16790569236198E-17,-1.,0.));
#785=DIRECTION('',(-6.16790569236198E-17,1.,0.));
#786=DIRECTION('',(0.,0.,1.));
#787=DIRECTION('center_axis',(0.,0.,1.));
#788=DIRECTION('ref_axis',(1.,8.07434927000115E-16,0.));
#789=DIRECTION('center_axis',(0.,0.,-1.));
#790=DIRECTION('ref_axis',(1.,8.07434927000115E-16,0.));
#791=DIRECTION('center_axis',(0.,0.,1.));
#792=DIRECTION('ref_axis',(1.,8.07434927000115E-16,0.));
#793=DIRECTION('center_axis',(1.,0.,0.));
#794=DIRECTION('ref_axis',(0.,-1.,0.));
#795=DIRECTION('',(0.,1.,0.));
#796=DIRECTION('',(0.,0.,-1.));
#797=DIRECTION('',(0.,1.,0.));
#798=DIRECTION('',(0.,0.,-1.));
#799=DIRECTION('center_axis',(0.,0.,1.));
#800=DIRECTION('ref_axis',(1.,0.,0.));
#801=DIRECTION('center_axis',(0.,0.,1.));
#802=DIRECTION('ref_axis',(1.,0.,0.));
#803=DIRECTION('',(0.,0.,1.));
#804=DIRECTION('center_axis',(0.,0.,1.));
#805=DIRECTION('ref_axis',(1.,0.,0.));
#806=DIRECTION('center_axis',(0.,0.,-1.));
#807=DIRECTION('ref_axis',(1.,0.,0.));
#808=DIRECTION('center_axis',(0.,0.,-1.));
#809=DIRECTION('ref_axis',(1.,0.,0.));
#810=DIRECTION('center_axis',(0.,0.,1.));
#811=DIRECTION('ref_axis',(1.,0.,0.));
#812=DIRECTION('center_axis',(0.,0.,1.));
#813=DIRECTION('ref_axis',(1.,0.,0.));
#814=DIRECTION('',(0.,0.,1.));
#815=DIRECTION('center_axis',(0.,0.,1.));
#816=DIRECTION('ref_axis',(1.,0.,0.));
#817=DIRECTION('center_axis',(0.,0.,-1.));
#818=DIRECTION('ref_axis',(1.,0.,0.));
#819=DIRECTION('center_axis',(0.,0.,-1.));
#820=DIRECTION('ref_axis',(1.,0.,0.));
#821=DIRECTION('center_axis',(0.,0.,1.));
#822=DIRECTION('ref_axis',(1.,0.,0.));
#823=DIRECTION('center_axis',(0.,0.,1.));
#824=DIRECTION('ref_axis',(1.,0.,0.));
#825=DIRECTION('',(0.,0.,1.));
#826=DIRECTION('center_axis',(0.,0.,1.));
#827=DIRECTION('ref_axis',(1.,0.,0.));
#828=DIRECTION('center_axis',(0.,0.,-1.));
#829=DIRECTION('ref_axis',(1.,0.,0.));
#830=DIRECTION('center_axis',(0.,0.,-1.));
#831=DIRECTION('ref_axis',(1.,0.,0.));
#832=DIRECTION('center_axis',(0.,0.,1.));
#833=DIRECTION('ref_axis',(1.,0.,0.));
#834=DIRECTION('center_axis',(0.,0.,1.));
#835=DIRECTION('ref_axis',(1.,0.,0.));
#836=DIRECTION('',(0.,0.,1.));
#837=DIRECTION('center_axis',(0.,0.,1.));
#838=DIRECTION('ref_axis',(1.,0.,0.));
#839=DIRECTION('center_axis',(0.,0.,-1.));
#840=DIRECTION('ref_axis',(1.,0.,0.));
#841=DIRECTION('center_axis',(0.,0.,-1.));
#842=DIRECTION('ref_axis',(1.,0.,0.));
#843=DIRECTION('center_axis',(0.,0.,1.));
#844=DIRECTION('ref_axis',(1.,0.,0.));
#845=DIRECTION('',(0.,0.,1.));
#846=DIRECTION('center_axis',(0.,0.,1.));
#847=DIRECTION('ref_axis',(1.,0.,0.));
#848=DIRECTION('center_axis',(0.,0.,1.));
#849=DIRECTION('ref_axis',(1.,0.,0.));
#850=DIRECTION('',(0.,0.,1.));
#851=DIRECTION('center_axis',(0.,0.,1.));
#852=DIRECTION('ref_axis',(1.,0.,0.));
#853=DIRECTION('center_axis',(0.,0.,1.));
#854=DIRECTION('ref_axis',(1.,0.,0.));
#855=DIRECTION('',(0.,0.,1.));
#856=DIRECTION('center_axis',(0.,0.,1.));
#857=DIRECTION('ref_axis',(1.,0.,0.));
#858=DIRECTION('center_axis',(0.,0.,1.));
#859=DIRECTION('ref_axis',(1.,0.,0.));
#860=DIRECTION('',(0.,0.,1.));
#861=DIRECTION('center_axis',(0.,0.,1.));
#862=DIRECTION('ref_axis',(1.,0.,0.));
#863=DIRECTION('center_axis',(0.,0.,1.));
#864=DIRECTION('ref_axis',(-1.,0.,0.));
#865=DIRECTION('center_axis',(0.,0.,1.));
#866=DIRECTION('ref_axis',(1.,0.,0.));
#867=DIRECTION('center_axis',(0.,0.,1.));
#868=DIRECTION('ref_axis',(-1.77635683940025E-15,-1.,0.));
#869=DIRECTION('',(1.,1.61575117282177E-16,0.));
#870=DIRECTION('center_axis',(0.,0.,1.));
#871=DIRECTION('ref_axis',(-1.,0.,0.));
#872=DIRECTION('',(0.,-1.,0.));
#873=DIRECTION('center_axis',(0.,0.,1.));
#874=DIRECTION('ref_axis',(1.77635683940025E-15,1.,0.));
#875=DIRECTION('',(-1.,1.61575117282177E-16,0.));
#876=DIRECTION('center_axis',(0.,0.,-1.));
#877=DIRECTION('ref_axis',(1.,0.,0.));
#878=DIRECTION('center_axis',(0.,0.,1.));
#879=DIRECTION('ref_axis',(1.,0.,0.));
#880=DIRECTION('',(0.,0.,-1.));
#881=DIRECTION('center_axis',(0.,0.,1.));
#882=DIRECTION('ref_axis',(-1.,0.,0.));
#883=DIRECTION('',(-1.,1.61575117282177E-16,0.));
#884=DIRECTION('center_axis',(0.,0.,1.));
#885=DIRECTION('ref_axis',(1.77635683940025E-15,1.,0.));
#886=DIRECTION('',(0.,-1.,0.));
#887=DIRECTION('center_axis',(0.,0.,1.));
#888=DIRECTION('ref_axis',(-1.,0.,0.));
#889=DIRECTION('',(1.,1.61575117282177E-16,0.));
#890=DIRECTION('center_axis',(0.,0.,1.));
#891=DIRECTION('ref_axis',(-1.77635683940025E-15,-1.,0.));
#892=DIRECTION('center_axis',(1.61575117282177E-16,1.,0.));
#893=DIRECTION('ref_axis',(1.,-1.61575117282177E-16,0.));
#894=DIRECTION('',(0.,0.,-1.));
#895=DIRECTION('center_axis',(0.,0.,-1.));
#896=DIRECTION('ref_axis',(1.77635683940025E-15,1.,0.));
#897=DIRECTION('',(0.,0.,-1.));
#898=DIRECTION('center_axis',(-1.,0.,0.));
#899=DIRECTION('ref_axis',(0.,1.,0.));
#900=DIRECTION('',(0.,0.,-1.));
#901=DIRECTION('center_axis',(0.,0.,-1.));
#902=DIRECTION('ref_axis',(-1.,0.,0.));
#903=DIRECTION('',(0.,0.,-1.));
#904=DIRECTION('center_axis',(1.61575117282177E-16,-1.,0.));
#905=DIRECTION('ref_axis',(-1.,-1.61575117282177E-16,0.));
#906=DIRECTION('',(0.,0.,-1.));
#907=DIRECTION('center_axis',(0.,0.,-1.));
#908=DIRECTION('ref_axis',(-1.77635683940025E-15,-1.,0.));
#909=DIRECTION('center_axis',(1.,6.16790569236198E-16,0.));
#910=DIRECTION('ref_axis',(-6.16790569236198E-16,1.,0.));
#911=DIRECTION('',(-6.16790569236198E-16,1.,0.));
#912=DIRECTION('',(0.,0.,1.));
#913=DIRECTION('',(-6.16790569236198E-16,1.,1.06831260354642E-15));
#914=DIRECTION('',(0.,0.,1.));
#915=DIRECTION('center_axis',(0.866025403784439,0.,0.5));
#916=DIRECTION('ref_axis',(-0.5,0.,0.866025403784439));
#917=DIRECTION('',(0.,1.,0.));
#918=DIRECTION('center_axis',(0.866025403784439,0.,0.5));
#919=DIRECTION('ref_axis',(0.5,-6.05576195250087E-16,-0.866025403784439));
#920=DIRECTION('center_axis',(0.866025403784439,0.,0.5));
#921=DIRECTION('ref_axis',(-0.5,4.03717463500057E-16,0.866025403784439));
#922=DIRECTION('center_axis',(0.,0.,1.));
#923=DIRECTION('ref_axis',(1.,-1.21115239050017E-15,0.));
#924=DIRECTION('center_axis',(0.,0.,1.));
#925=DIRECTION('ref_axis',(1.,-1.21115239050017E-15,0.));
#926=DIRECTION('center_axis',(0.,0.,1.));
#927=DIRECTION('ref_axis',(1.,-1.21115239050017E-15,0.));
#928=DIRECTION('',(0.,0.,1.));
#929=DIRECTION('center_axis',(-1.,0.,0.));
#930=DIRECTION('ref_axis',(0.,-1.,0.));
#931=DIRECTION('',(0.,-1.,0.));
#932=DIRECTION('',(0.,-1.,0.));
#933=DIRECTION('',(0.,0.,1.));
#934=DIRECTION('center_axis',(0.,0.,1.));
#935=DIRECTION('ref_axis',(-1.,8.07434927000113E-16,0.));
#936=DIRECTION('center_axis',(0.,0.,1.));
#937=DIRECTION('ref_axis',(-1.,8.07434927000113E-16,0.));
#938=DIRECTION('center_axis',(0.,0.,1.));
#939=DIRECTION('ref_axis',(-1.,8.07434927000113E-16,0.));
#940=DIRECTION('center_axis',(0.,0.,1.));
#941=DIRECTION('ref_axis',(-1.,0.,0.));
#942=DIRECTION('center_axis',(1.,6.16790569236198E-16,0.));
#943=DIRECTION('ref_axis',(-6.16790569236198E-16,1.,0.));
#944=DIRECTION('',(6.16790569236198E-16,-1.,0.));
#945=DIRECTION('',(0.,0.,1.));
#946=DIRECTION('',(6.16790569236198E-16,-1.,-1.06831260354642E-15));
#947=DIRECTION('',(0.,0.,1.));
#948=DIRECTION('center_axis',(0.866025403784439,0.,0.5));
#949=DIRECTION('ref_axis',(-0.5,0.,0.866025403784439));
#950=DIRECTION('',(0.,-1.,0.));
#951=DIRECTION('center_axis',(0.866025403784439,0.,0.5));
#952=DIRECTION('ref_axis',(-0.5,4.03717463500057E-16,0.866025403784439));
#953=DIRECTION('center_axis',(0.866025403784439,0.,0.5));
#954=DIRECTION('ref_axis',(0.5,-6.05576195250087E-16,-0.866025403784438));
#955=DIRECTION('center_axis',(0.,0.,1.));
#956=DIRECTION('ref_axis',(1.,-1.21115239050017E-15,0.));
#957=DIRECTION('center_axis',(0.,0.,-1.));
#958=DIRECTION('ref_axis',(1.,-1.21115239050017E-15,0.));
#959=DIRECTION('',(0.,0.,1.));
#960=DIRECTION('center_axis',(0.,0.,-1.));
#961=DIRECTION('ref_axis',(1.,-1.21115239050017E-15,0.));
#962=DIRECTION('center_axis',(0.,0.,1.));
#963=DIRECTION('ref_axis',(-1.,0.,0.));
#964=DIRECTION('center_axis',(0.,0.,-1.));
#965=DIRECTION('ref_axis',(-1.,8.07434927000113E-16,0.));
#966=DIRECTION('',(0.,1.,0.));
#967=DIRECTION('center_axis',(-1.,0.,0.));
#968=DIRECTION('ref_axis',(0.,-1.,0.));
#969=DIRECTION('',(0.,0.,1.));
#970=DIRECTION('',(0.,1.,0.));
#971=DIRECTION('center_axis',(0.,0.,1.));
#972=DIRECTION('ref_axis',(-1.,8.07434927000113E-16,0.));
#973=DIRECTION('center_axis',(0.,0.,-1.));
#974=DIRECTION('ref_axis',(-1.,8.07434927000113E-16,0.));
#975=DIRECTION('center_axis',(0.,0.,1.));
#976=DIRECTION('ref_axis',(-1.,0.,0.));
#977=CARTESIAN_POINT('',(0.,0.,0.));
#978=CARTESIAN_POINT('Origin',(-51.97,38.925,-54.98));
#979=CARTESIAN_POINT('',(-51.97,-33.075,-51.98));
#980=CARTESIAN_POINT('',(-51.97,38.925,-51.98));
#981=CARTESIAN_POINT('',(-51.97,20.9249981217478,-51.98));
#982=CARTESIAN_POINT('',(-51.97,-33.075,-54.98));
#983=CARTESIAN_POINT('',(-51.97,-33.075,-54.98));
#984=CARTESIAN_POINT('',(-51.97,38.925,-54.98));
#985=CARTESIAN_POINT('',(-51.97,20.9249981217478,-54.98));
#986=CARTESIAN_POINT('',(-51.97,38.925,-54.98));
#987=CARTESIAN_POINT('Origin',(-40.97,38.925,-54.98));
#988=CARTESIAN_POINT('',(-29.97,38.925,-51.98));
#989=CARTESIAN_POINT('Origin',(-40.97,38.925,-51.98));
#990=CARTESIAN_POINT('',(-29.97,38.925,-54.98));
#991=CARTESIAN_POINT('Origin',(-40.97,38.925,-54.98));
#992=CARTESIAN_POINT('',(-29.97,38.925,-54.98));
#993=CARTESIAN_POINT('Origin',(-29.97,-33.075,-54.98));
#994=CARTESIAN_POINT('',(-29.97,-33.075,-51.98));
#995=CARTESIAN_POINT('',(-29.97,-15.0750018782522,-51.98));
#996=CARTESIAN_POINT('',(-29.97,-33.075,-54.98));
#997=CARTESIAN_POINT('',(-29.97,-15.0750018782522,-54.98));
#998=CARTESIAN_POINT('',(-29.97,-33.075,-54.98));
#999=CARTESIAN_POINT('Origin',(-40.97,-33.075,-54.98));
#1000=CARTESIAN_POINT('Origin',(-40.97,-33.075,-51.98));
#1001=CARTESIAN_POINT('Origin',(-40.97,-33.075,-54.98));
#1002=CARTESIAN_POINT('Origin',(64.9699976936637,92.4449962434956,5.02));
#1003=CARTESIAN_POINT('',(64.9699976936637,-86.5950037565045,-51.98));
#1004=CARTESIAN_POINT('',(64.9699976936637,92.4449962434956,-51.98));
#1005=CARTESIAN_POINT('',(64.9699976936637,47.6849962434955,-51.98));
#1006=CARTESIAN_POINT('',(64.9699976936637,-86.5950037565045,-54.98));
#1007=CARTESIAN_POINT('',(64.9699976936637,-86.5950037565045,5.02));
#1008=CARTESIAN_POINT('',(64.9699976936637,92.4449962434956,-54.98));
#1009=CARTESIAN_POINT('',(64.9699976936637,47.6849962434955,-54.98));
#1010=CARTESIAN_POINT('',(64.9699976936637,92.4449962434956,5.02));
#1011=CARTESIAN_POINT('Origin',(45.1625,82.69,-54.98));
#1012=CARTESIAN_POINT('',(42.4125,82.69,-54.98));
#1013=CARTESIAN_POINT('Origin',(45.1625,82.69,-54.98));
#1014=CARTESIAN_POINT('',(42.4125,82.69,-53.48));
#1015=CARTESIAN_POINT('',(42.4125,82.69,-54.98));
#1016=CARTESIAN_POINT('Origin',(45.1625,82.69,-53.48));
#1017=CARTESIAN_POINT('Origin',(45.1625,82.69,-53.48));
#1018=CARTESIAN_POINT('',(43.7625,82.69,-53.48));
#1019=CARTESIAN_POINT('Origin',(45.1625,82.69,-53.48));
#1020=CARTESIAN_POINT('Origin',(-45.1625,82.69,-54.98));
#1021=CARTESIAN_POINT('',(-47.9125,82.69,-54.98));
#1022=CARTESIAN_POINT('Origin',(-45.1625,82.69,-54.98));
#1023=CARTESIAN_POINT('',(-47.9125,82.69,-53.48));
#1024=CARTESIAN_POINT('',(-47.9125,82.69,-54.98));
#1025=CARTESIAN_POINT('Origin',(-45.1625,82.69,-53.48));
#1026=CARTESIAN_POINT('Origin',(-45.1625,82.69,-53.48));
#1027=CARTESIAN_POINT('',(-46.5625,82.69,-53.48));
#1028=CARTESIAN_POINT('Origin',(-45.1625,82.69,-53.48));
#1029=CARTESIAN_POINT('Origin',(45.1625,-76.83,-54.98));
#1030=CARTESIAN_POINT('',(42.4125,-76.83,-54.98));
#1031=CARTESIAN_POINT('Origin',(45.1625,-76.83,-54.98));
#1032=CARTESIAN_POINT('',(42.4125,-76.83,-53.48));
#1033=CARTESIAN_POINT('',(42.4125,-76.83,-54.98));
#1034=CARTESIAN_POINT('Origin',(45.1625,-76.83,-53.48));
#1035=CARTESIAN_POINT('Origin',(45.1625,-76.83,-53.48));
#1036=CARTESIAN_POINT('',(43.7625,-76.83,-53.48));
#1037=CARTESIAN_POINT('Origin',(45.1625,-76.83,-53.48));
#1038=CARTESIAN_POINT('Origin',(-45.1625,-76.83,-54.98));
#1039=CARTESIAN_POINT('',(-47.9125,-76.83,-54.98));
#1040=CARTESIAN_POINT('Origin',(-45.1625,-76.83,-54.98));
#1041=CARTESIAN_POINT('',(-47.9125,-76.83,-53.48));
#1042=CARTESIAN_POINT('',(-47.9125,-76.83,-54.98));
#1043=CARTESIAN_POINT('Origin',(-45.1625,-76.83,-53.48));
#1044=CARTESIAN_POINT('Origin',(-45.1625,-76.83,-53.48));
#1045=CARTESIAN_POINT('',(-46.5625,-76.83,-53.48));
#1046=CARTESIAN_POINT('Origin',(-45.1625,-76.83,-53.48));
#1047=CARTESIAN_POINT('Origin',(45.1625,82.69,-54.98));
#1048=CARTESIAN_POINT('',(43.7625,82.69,-51.98));
#1049=CARTESIAN_POINT('',(43.7625,82.69,-54.98));
#1050=CARTESIAN_POINT('Origin',(45.1625,82.69,-51.98));
#1051=CARTESIAN_POINT('Origin',(-45.1625,82.69,-54.98));
#1052=CARTESIAN_POINT('',(-46.5625,82.69,-51.98));
#1053=CARTESIAN_POINT('',(-46.5625,82.69,-54.98));
#1054=CARTESIAN_POINT('Origin',(-45.1625,82.69,-51.98));
#1055=CARTESIAN_POINT('Origin',(45.1625,-76.83,-54.98));
#1056=CARTESIAN_POINT('',(43.7625,-76.83,-51.98));
#1057=CARTESIAN_POINT('',(43.7625,-76.83,-54.98));
#1058=CARTESIAN_POINT('Origin',(45.1625,-76.83,-51.98));
#1059=CARTESIAN_POINT('Origin',(-45.1625,-76.83,-54.98));
#1060=CARTESIAN_POINT('',(-46.5625,-76.83,-51.98));
#1061=CARTESIAN_POINT('',(-46.5625,-76.83,-54.98));
#1062=CARTESIAN_POINT('Origin',(-45.1625,-76.83,-51.98));
#1063=CARTESIAN_POINT('Origin',(-2.30633632192223E-6,2.92499624349555,-54.98));
#1064=CARTESIAN_POINT('',(54.9699976936637,102.444996243496,-54.98));
#1065=CARTESIAN_POINT('Origin',(54.9699976936637,92.4449962434956,-54.98));
#1066=CARTESIAN_POINT('',(54.9699976936637,-96.5950037565044,-54.98));
#1067=CARTESIAN_POINT('Origin',(54.9699976936637,-86.5950037565045,-54.98));
#1068=CARTESIAN_POINT('',(-54.9700023063363,-96.5950037565045,-54.98));
#1069=CARTESIAN_POINT('',(27.4849976936637,-96.5950037565045,-54.98));
#1070=CARTESIAN_POINT('',(-64.9700023063363,-86.5950037565045,-54.98));
#1071=CARTESIAN_POINT('Origin',(-54.9700023063363,-86.5950037565045,-54.98));
#1072=CARTESIAN_POINT('',(-64.9700023063363,92.4449962434956,-54.98));
#1073=CARTESIAN_POINT('',(-64.9700023063363,-41.8350037565045,-54.98));
#1074=CARTESIAN_POINT('',(-54.9700023063363,102.444996243496,-54.98));
#1075=CARTESIAN_POINT('Origin',(-54.9700023063363,92.4449962434956,-54.98));
#1076=CARTESIAN_POINT('',(-27.4850023063363,102.444996243496,-54.98));
#1077=CARTESIAN_POINT('Origin',(54.9699976936637,92.4449962434956,5.02));
#1078=CARTESIAN_POINT('',(54.9699976936637,102.444996243496,-51.98));
#1079=CARTESIAN_POINT('Origin',(54.9699976936637,92.4449962434956,-51.98));
#1080=CARTESIAN_POINT('',(54.9699976936637,102.444996243496,5.02));
#1081=CARTESIAN_POINT('Origin',(-2.30633632192223E-6,2.92499624349555,-51.98));
#1082=CARTESIAN_POINT('',(-54.9700023063363,102.444996243496,-51.98));
#1083=CARTESIAN_POINT('',(-27.4850023063363,102.444996243496,-51.98));
#1084=CARTESIAN_POINT('',(-64.9700023063363,92.4449962434956,-51.98));
#1085=CARTESIAN_POINT('Origin',(-54.9700023063363,92.4449962434956,-51.98));
#1086=CARTESIAN_POINT('',(-64.9700023063363,-86.5950037565045,-51.98));
#1087=CARTESIAN_POINT('',(-64.9700023063363,-41.8350037565045,-51.98));
#1088=CARTESIAN_POINT('',(-54.9700023063363,-96.5950037565045,-51.98));
#1089=CARTESIAN_POINT('Origin',(-54.9700023063363,-86.5950037565045,-51.98));
#1090=CARTESIAN_POINT('',(54.9699976936637,-96.5950037565044,-51.98));
#1091=CARTESIAN_POINT('',(27.4849976936637,-96.5950037565045,-51.98));
#1092=CARTESIAN_POINT('Origin',(54.9699976936637,-86.5950037565045,-51.98));
#1093=CARTESIAN_POINT('Origin',(-54.9700023063363,102.444996243496,5.02));
#1094=CARTESIAN_POINT('',(-54.9700023063363,102.444996243496,5.02));
#1095=CARTESIAN_POINT('Origin',(-54.9700023063363,92.4449962434956,5.02));
#1096=CARTESIAN_POINT('',(-64.9700023063363,92.4449962434956,5.02));
#1097=CARTESIAN_POINT('Origin',(-64.9700023063363,-86.5950037565045,5.02));
#1098=CARTESIAN_POINT('',(-64.9700023063363,-86.5950037565045,5.02));
#1099=CARTESIAN_POINT('Origin',(-54.9700023063363,-86.5950037565045,5.02));
#1100=CARTESIAN_POINT('',(-54.9700023063363,-96.5950037565045,5.02));
#1101=CARTESIAN_POINT('Origin',(54.9699976936637,-96.5950037565044,5.02));
#1102=CARTESIAN_POINT('',(54.9699976936637,-96.5950037565044,5.02));
#1103=CARTESIAN_POINT('Origin',(54.9699976936637,-86.5950037565045,5.02));
#1104=CARTESIAN_POINT('Origin',(-29.97,-33.075,-51.98));
#1105=CARTESIAN_POINT('',(-29.97,-33.075,-51.98));
#1106=CARTESIAN_POINT('',(-29.97,38.925,-51.98));
#1107=CARTESIAN_POINT('',(-29.97,-33.075,-51.98));
#1108=CARTESIAN_POINT('',(-29.97,-33.075,-51.0325588832577));
#1109=CARTESIAN_POINT('',(-29.97,-33.075,-51.98));
#1110=CARTESIAN_POINT('',(-29.97,38.925,-51.0325588832576));
#1111=CARTESIAN_POINT('',(-29.97,-15.075,-51.0325588832577));
#1112=CARTESIAN_POINT('',(-29.97,38.925,-51.98));
#1113=CARTESIAN_POINT('Origin',(-40.97,2.92499999999999,-31.98));
#1114=CARTESIAN_POINT('',(-40.97,-44.075,-31.98));
#1115=CARTESIAN_POINT('',(-40.97,49.925,-31.98));
#1116=CARTESIAN_POINT('',(-40.97,2.92499999999998,-31.98));
#1117=CARTESIAN_POINT('Origin',(-40.97,38.925,-31.98));
#1118=CARTESIAN_POINT('Origin',(-40.97,-33.075,-31.9800000000001));
#1119=CARTESIAN_POINT('Origin',(-40.97,38.925,-51.98));
#1120=CARTESIAN_POINT('',(-51.97,38.925,-51.98));
#1121=CARTESIAN_POINT('Origin',(-40.97,38.925,-51.98));
#1122=CARTESIAN_POINT('',(-51.97,38.925,-31.98));
#1123=CARTESIAN_POINT('Origin',(-40.97,38.925,-31.98));
#1124=CARTESIAN_POINT('',(-51.97,38.925,-51.98));
#1125=CARTESIAN_POINT('Origin',(-51.97,38.925,-51.98));
#1126=CARTESIAN_POINT('',(-51.97,-33.075,-51.98));
#1127=CARTESIAN_POINT('',(-51.97,38.925,-51.98));
#1128=CARTESIAN_POINT('',(-51.97,-33.075,-31.98));
#1129=CARTESIAN_POINT('',(-51.97,38.925,-31.98));
#1130=CARTESIAN_POINT('',(-51.97,-33.075,-51.98));
#1131=CARTESIAN_POINT('Origin',(-40.97,-33.075,-51.98));
#1132=CARTESIAN_POINT('Origin',(-40.97,-33.075,-31.98));
#1133=CARTESIAN_POINT('Origin',(-40.97,-33.075,-51.98));
#1134=CARTESIAN_POINT('Origin',(-40.97,2.92499999999999,-31.98));
#1135=CARTESIAN_POINT('Origin',(-26.97,-33.075,-51.98));
#1136=CARTESIAN_POINT('',(-26.97,-33.075,-51.98));
#1137=CARTESIAN_POINT('',(-26.97,38.925,-51.98));
#1138=CARTESIAN_POINT('',(-26.97,-15.075,-51.98));
#1139=CARTESIAN_POINT('',(-26.97,38.925,-50.2287113059642));
#1140=CARTESIAN_POINT('',(-26.97,38.925,-51.98));
#1141=CARTESIAN_POINT('',(-26.97,-33.075,-50.2287113059644));
#1142=CARTESIAN_POINT('',(-26.97,-15.075,-50.2287113059643));
#1143=CARTESIAN_POINT('',(-26.97,-33.075,-51.98));
#1144=CARTESIAN_POINT('Origin',(-38.3719237886467,2.92499999999999,-30.48));
#1145=CARTESIAN_POINT('',(-39.2379491924311,-46.9674439894498,-28.98));
#1146=CARTESIAN_POINT('',(-39.2379491924311,52.8174439894498,-28.98));
#1147=CARTESIAN_POINT('',(-39.2379491924311,2.92499999999999,-28.98));
#1148=CARTESIAN_POINT('Origin',(-40.97,-33.075,-25.9800000000001));
#1149=CARTESIAN_POINT('Origin',(-40.97,38.925,-25.98));
#1150=CARTESIAN_POINT('Origin',(-40.97,38.925,-51.98));
#1151=CARTESIAN_POINT('',(-54.97,38.925,-51.98));
#1152=CARTESIAN_POINT('Origin',(-40.97,38.925,-51.98));
#1153=CARTESIAN_POINT('',(-54.97,38.925,-28.98));
#1154=CARTESIAN_POINT('',(-54.97,38.925,-51.98));
#1155=CARTESIAN_POINT('Origin',(-40.97,38.925,-28.98));
#1156=CARTESIAN_POINT('Origin',(-40.97,2.92499999999999,-51.98));
#1157=CARTESIAN_POINT('',(-54.97,-33.075,-51.98));
#1158=CARTESIAN_POINT('Origin',(-40.97,-33.075,-51.98));
#1159=CARTESIAN_POINT('',(-54.97,20.925,-51.98));
#1160=CARTESIAN_POINT('Origin',(-54.97,38.925,-51.98));
#1161=CARTESIAN_POINT('',(-54.97,-33.075,-28.98));
#1162=CARTESIAN_POINT('',(-54.97,-33.075,-51.98));
#1163=CARTESIAN_POINT('',(-54.97,20.925,-28.98));
#1164=CARTESIAN_POINT('Origin',(-40.97,-33.075,-51.98));
#1165=CARTESIAN_POINT('Origin',(-40.97,-33.075,-28.98));
#1166=CARTESIAN_POINT('Origin',(-40.97,2.92499999999999,-28.98));
#1167=UNCERTAINTY_MEASURE_WITH_UNIT(LENGTH_MEASURE(0.01),#1171,
'DISTANCE_ACCURACY_VALUE',
'Maximum model space distance between geometric entities at asserted c
onnectivities');
#1168=UNCERTAINTY_MEASURE_WITH_UNIT(LENGTH_MEASURE(0.01),#1171,
'DISTANCE_ACCURACY_VALUE',
'Maximum model space distance between geometric entities at asserted c
onnectivities');
#1169=(
GEOMETRIC_REPRESENTATION_CONTEXT(3)
GLOBAL_UNCERTAINTY_ASSIGNED_CONTEXT((#1167))
GLOBAL_UNIT_ASSIGNED_CONTEXT((#1171,#1173,#1174))
REPRESENTATION_CONTEXT('','3D')
);
#1170=(
GEOMETRIC_REPRESENTATION_CONTEXT(3)
GLOBAL_UNCERTAINTY_ASSIGNED_CONTEXT((#1168))
GLOBAL_UNIT_ASSIGNED_CONTEXT((#1171,#1173,#1174))
REPRESENTATION_CONTEXT('','3D')
);
#1171=(
LENGTH_UNIT()
NAMED_UNIT(*)
SI_UNIT(.MILLI.,.METRE.)
);
#1172=(
LENGTH_UNIT()
NAMED_UNIT(*)
SI_UNIT($,.METRE.)
);
#1173=(
NAMED_UNIT(*)
PLANE_ANGLE_UNIT()
SI_UNIT($,.RADIAN.)
);
#1174=(
NAMED_UNIT(*)
SI_UNIT($,.STERADIAN.)
SOLID_ANGLE_UNIT()
);
#1175=SHAPE_DEFINITION_REPRESENTATION(#1176,#1177);
#1176=PRODUCT_DEFINITION_SHAPE('',$,#1179);
#1177=SHAPE_REPRESENTATION('',(#687),#1169);
#1178=PRODUCT_DEFINITION_CONTEXT('part definition',#1183,'design');
#1179=PRODUCT_DEFINITION('DisplayTouch2_backplate',
'DisplayTouch2_backplate v3',#1180,#1178);
#1180=PRODUCT_DEFINITION_FORMATION('',$,#1185);
#1181=PRODUCT_RELATED_PRODUCT_CATEGORY('DisplayTouch2_backplate v3',
'DisplayTouch2_backplate v3',(#1185));
#1182=APPLICATION_PROTOCOL_DEFINITION('international standard',
'automotive_design',2009,#1183);
#1183=APPLICATION_CONTEXT(
'Core Data for Automotive Mechanical Design Process');
#1184=PRODUCT_CONTEXT('part definition',#1183,'mechanical');
#1185=PRODUCT('DisplayTouch2_backplate','DisplayTouch2_backplate v3',$,
(#1184));
#1186=PRESENTATION_STYLE_ASSIGNMENT((#1187));
#1187=SURFACE_STYLE_USAGE(.BOTH.,#1188);
#1188=SURFACE_SIDE_STYLE('',(#1189));
#1189=SURFACE_STYLE_FILL_AREA(#1190);
#1190=FILL_AREA_STYLE('Acier - Satin\X\E9',(#1191));
#1191=FILL_AREA_STYLE_COLOUR('Acier - Satin\X\E9',#1192);
#1192=COLOUR_RGB('Acier - Satin\X\E9',0.627450980392157,0.627450980392157,
0.627450980392157);
ENDSEC;
END-ISO-10303-21;
